<svg xmlns="http://www.w3.org/2000/svg" width="128" height="128" viewBox="0 0 128 128">
  <defs>
    <linearGradient id="a" x1="0%" y1="0%" x2="100%" y2="100%">
      <stop offset="0%" stop-color="#1e1e2e"/>
      <stop offset="100%" stop-color="#181825"/>
    </linearGradient>
    <linearGradient id="e" x1="0%" y1="0%" x2="100%" y2="100%">
      <stop offset="0%" stop-color="#89b4fa"/>
      <stop offset="100%" stop-color="#74c7ec"/>
    </linearGradient>
    <linearGradient id="d" x1="0%" y1="0%" x2="100%" y2="100%">
      <stop offset="0%" stop-color="#a6e3a1"/>
      <stop offset="100%" stop-color="#94e2d5"/>
    </linearGradient>
    <linearGradient id="c" x1="0%" y1="0%" x2="100%" y2="100%">
      <stop offset="0%" stop-color="#f9e2af"/>
      <stop offset="100%" stop-color="#fab387"/>
    </linearGradient>
    <filter id="b">
      <feDropShadow dx="0" dy="2" stdDeviation="2" flood-color="#000" flood-opacity=".25"/>
    </filter>
  </defs>
  <rect width="128" height="128" rx="22" fill="url(#a)"/>
  <g filter="url(#b)">
    <path d="M14 28h16l5 8h55q4 0 4 4v40q0 4-4 4H14q-4 0-4-4V32q0-4 4-4" fill="url(#c)" opacity=".55"/>
  </g>
  <g filter="url(#b)">
    <path d="M20 40h16l5 8h55q4 0 4 4v38q0 4-4 4H20q-4 0-4-4V44q0-4 4-4" fill="url(#d)" opacity=".75"/>
  </g>
  <g filter="url(#b)">
    <path d="M26 52h16l5 8h55q4 0 4 4v36q0 4-4 4H26q-4 0-4-4V56q0-4 4-4" fill="url(#e)"/>
    <path d="m44 74-8 8 8 8m40-16 8 8-8 8M72 70 56 94" stroke="#fff" stroke-width="3" stroke-linecap="round" fill="none" opacity=".9"/>
  </g>
  <g transform="translate(104 20)">
    <circle r="13" fill="#f38ba8"/>
    <path fill="#fff" d="m0-7.5 2.3 4.7 5.2.5-3.8 4.1 1 5.2L0 4.7-4.7 7l1-5.2-3.8-4.1 5.2-.5z"/>
  </g>
</svg>
