<svg xmlns="http://www.w3.org/2000/svg" width="24" height="24" viewBox="0 0 24 24" fill="currentColor">
  <defs>
    <mask id="m">
      <rect width="24" height="24" fill="white"/>
      <g stroke="black" stroke-width="2" stroke-linecap="round" fill="none">
        <polyline points="6.5,14.5 3.5,18 6.5,21.5"/>
        <polyline points="16.5,14.5 19.5,18 16.5,21.5"/>
        <line x1="13.5" y1="13.5" x2="9.5" y2="22.5"/>
      </g>
    </mask>
  </defs>
  <!-- Back folder -->
  <path d="M0,0.5 Q0,-0.5 1,-0.5 H4 L5.5,1.5 H21 Q22,1.5 22,2.5 V21 Q22,22 21,22 H1 Q0,22 0,21 Z" opacity="0.2"/>
  <!-- Middle folder -->
  <path d="M0.5,3 Q0.5,2 1.5,2 H5 L6.5,4 H22 Q23,4 23,5 V22 Q23,23 22,23 H1.5 Q0.5,23 0.5,22 Z" opacity="0.45"/>
  <!-- Front folder with code brackets cut out -->
  <path d="M1.5,6 Q1.5,5 2.5,5 H6 L7.5,7 H23 Q24,7 24,8 V23 Q24,24 23,24 H2.5 Q1.5,24 1.5,23 Z" mask="url(#m)"/>
</svg>
